{
	"asset":{
		"generator":"Khronos glTF Blender I/O v4.0.44",
		"version":"2.0"
	},
	"scene":0,
	"scenes":[
		{
			"name":"Scene",
			"nodes":[
				0,
				1,
				2
			]
		}
	],
	"nodes":[
		{
			"mesh":0,
			"name":"Cube",
			"scale":[
				3.2899999618530273,
				0.1899999976158142,
				1.5299999713897705
			]
		},
		{
			"mesh":1,
			"name":"Text",
			"translation":[
				-1.4727171659469604,
				0.2729320526123047,
				0.22338837385177612
			]
		},
		{
			"mesh":2,
			"name":"Text.001",
			"translation":[
				-3.088331699371338,
				0.24708373844623566,
				1.055894374847412
			]
		}
	],
	"materials":[
		{
			"doubleSided":true,
			"name":"Material.001",
			"pbrMetallicRoughness":{
				"baseColorFactor":[
					0.016548698768019676,
					0.015656407922506332,
					0.01473650336265564,
					1
				],
				"metallicFactor":0,
				"roughnessFactor":0
			}
		},
		{
			"doubleSided":true,
			"name":"Material",
			"pbrMetallicRoughness":{
				"baseColorFactor":[
					1,
					0.96375972032547,
					0.9909172058105469,
					1
				],
				"metallicFactor":0,
				"roughnessFactor":0
			}
		},
		{
			"doubleSided":true,
			"name":"Material.003",
			"pbrMetallicRoughness":{
				"baseColorFactor":[
					1,
					0.96375972032547,
					0.9909172058105469,
					1
				],
				"metallicFactor":0,
				"roughnessFactor":0
			}
		}
	],
	"meshes":[
		{
			"name":"Cube.001",
			"primitives":[
				{
					"attributes":{
						"COLOR_0":0,
						"POSITION":1,
						"NORMAL":2,
						"TEXCOORD_0":3
					},
					"indices":4,
					"material":0
				}
			]
		},
		{
			"name":"defrost",
			"primitives":[
				{
					"attributes":{
						"POSITION":5,
						"NORMAL":6,
						"TEXCOORD_0":7
					},
					"indices":8,
					"material":1
				}
			]
		},
		{
			"name":"defrost.001",
			"primitives":[
				{
					"attributes":{
						"POSITION":9,
						"NORMAL":10,
						"TEXCOORD_0":11
					},
					"indices":12,
					"material":2
				}
			]
		}
	],
	"accessors":[
		{
			"bufferView":0,
			"componentType":5123,
			"count":642,
			"normalized":true,
			"type":"VEC4"
		},
		{
			"bufferView":1,
			"componentType":5126,
			"count":642,
			"max":[
				1,
				1.0676801204681396,
				1.0081982612609863
			],
			"min":[
				-1.0038131475448608,
				-1,
				-1
			],
			"type":"VEC3"
		},
		{
			"bufferView":2,
			"componentType":5126,
			"count":642,
			"type":"VEC3"
		},
		{
			"bufferView":3,
			"componentType":5126,
			"count":642,
			"type":"VEC2"
		},
		{
			"bufferView":4,
			"componentType":5123,
			"count":1272,
			"type":"SCALAR"
		},
		{
			"bufferView":5,
			"componentType":5126,
			"count":580,
			"max":[
				2.9040002822875977,
				0,
				0.009000000543892384
			],
			"min":[
				0.04400000348687172,
				0,
				-0.6914074420928955
			],
			"type":"VEC3"
		},
		{
			"bufferView":6,
			"componentType":5126,
			"count":580,
			"type":"VEC3"
		},
		{
			"bufferView":7,
			"componentType":5126,
			"count":580,
			"type":"VEC2"
		},
		{
			"bufferView":8,
			"componentType":5123,
			"count":1716,
			"type":"SCALAR"
		},
		{
			"bufferView":9,
			"componentType":5126,
			"count":321,
			"max":[
				6.123060703277588,
				0,
				0.10580001026391983
			],
			"min":[
				0.02208000235259533,
				0,
				-0.3293600380420685
			],
			"type":"VEC3"
		},
		{
			"bufferView":10,
			"componentType":5126,
			"count":321,
			"type":"VEC3"
		},
		{
			"bufferView":11,
			"componentType":5126,
			"count":321,
			"type":"VEC2"
		},
		{
			"bufferView":12,
			"componentType":5123,
			"count":825,
			"type":"SCALAR"
		}
	],
	"bufferViews":[
		{
			"buffer":0,
			"byteLength":5136,
			"byteOffset":0,
			"target":34962
		},
		{
			"buffer":0,
			"byteLength":7704,
			"byteOffset":5136,
			"target":34962
		},
		{
			"buffer":0,
			"byteLength":7704,
			"byteOffset":12840,
			"target":34962
		},
		{
			"buffer":0,
			"byteLength":5136,
			"byteOffset":20544,
			"target":34962
		},
		{
			"buffer":0,
			"byteLength":2544,
			"byteOffset":25680,
			"target":34963
		},
		{
			"buffer":0,
			"byteLength":6960,
			"byteOffset":28224,
			"target":34962
		},
		{
			"buffer":0,
			"byteLength":6960,
			"byteOffset":35184,
			"target":34962
		},
		{
			"buffer":0,
			"byteLength":4640,
			"byteOffset":42144,
			"target":34962
		},
		{
			"buffer":0,
			"byteLength":3432,
			"byteOffset":46784,
			"target":34963
		},
		{
			"buffer":0,
			"byteLength":3852,
			"byteOffset":50216,
			"target":34962
		},
		{
			"buffer":0,
			"byteLength":3852,
			"byteOffset":54068,
			"target":34962
		},
		{
			"buffer":0,
			"byteLength":2568,
			"byteOffset":57920,
			"target":34962
		},
		{
			"buffer":0,
			"byteLength":1650,
			"byteOffset":60488,
			"target":34963
		}
	],
	"buffers":[
		{
			"byteLength":62140,
			"uri":"defrost.bin"
		}
	]
}
